<?xml version="1.0" encoding="iso-8859-1"?>
<!-- Generator: Adobe Illustrator 19.0.0, SVG Export Plug-In . SVG Version: 6.00 Build 0)  -->
<svg version="1.1" id="Capa_1" xmlns="http://www.w3.org/2000/svg" xmlns:xlink="http://www.w3.org/1999/xlink" x="0px" y="0px"
	 viewBox="0 0 511.504 511.504" style="enable-background:new 0 0 511.504 511.504;" xml:space="preserve">
<g>
	<g>
		<g>
			<path d="M378.384,102.79l-64,64l-87.648,29.216L168.064,430.71l-27.392,27.392c-25.009,23.873-64.367,23.873-89.376,0
				c-24.68-24.681-24.68-64.695,0-89.376l84-84c34.966-34.941,34.987-91.612,0.046-126.578c-0.015-0.015-0.031-0.031-0.046-0.046
				c-10.826-10.768-16.893-25.419-16.848-40.688v-2.624l-32-1.36c0,1.328,0,2.656,0,3.984c-0.066,23.76,9.377,46.558,26.224,63.312
				c22.471,22.455,22.485,58.874,0.03,81.346c-0.01,0.01-0.02,0.02-0.03,0.03l-84,84c-37.608,36.742-38.31,97.016-1.568,134.624
				c36.742,37.608,97.016,38.31,134.624,1.568c0.529-0.517,1.051-1.039,1.568-1.568l39.232-39.232l215.856-53.952l29.216-87.68
				l63.904-63.904L378.384,102.79z M393.616,360.758L237.04,399.814l55.888-55.872l-22.624-22.528L214.4,377.302l39.184-156.576
				l65.184-21.728l96.56,96.56L393.616,360.758z M433.616,268.614l-88-87.92l32.768-32.656l87.92,87.92L433.616,268.614z"/>
			<rect x="303.534" y="275.231" transform="matrix(-0.707 0.7072 -0.7072 -0.707 757.4429 268.6563)" width="39.072" height="32"/>
			<rect x="148.677" y="8.733" transform="matrix(0.7071 0.7071 -0.7071 0.7071 65.722 -109.2001)" width="32" height="32"/>
			<path d="M135.296,76.726l6.752-6.752L119.424,47.35l-6.752,6.752c-6.473,6.454-11.918,13.863-16.144,21.968l28.416,14.752
				C127.656,85.623,131.147,80.869,135.296,76.726z"/>
		</g>
	</g>
</g>
<g>
</g>
<g>
</g>
<g>
</g>
<g>
</g>
<g>
</g>
<g>
</g>
<g>
</g>
<g>
</g>
<g>
</g>
<g>
</g>
<g>
</g>
<g>
</g>
<g>
</g>
<g>
</g>
<g>
</g>
</svg>
